<!DOCTYPE svg PUBLIC "-//W3C//DTD SVG 1.1//EN" "http://www.w3.org/Graphics/SVG/1.1/DTD/svg11.dtd">
<!-- Uploaded to: SVG Repo, www.svgrepo.com, Transformed by: SVG Repo Mixer Tools -->
<svg width="256px" height="256px" viewBox="-6.4 -6.4 76.80 76.80" xmlns="http://www.w3.org/2000/svg" fill="#000000" stroke="#000000" stroke-width="0.00064" transform="matrix(1, 0, 0, 1, 0, 0)rotate(0)">
<g id="SVGRepo_bgCarrier" stroke-width="0"/>
<g id="SVGRepo_tracerCarrier" stroke-linecap="round" stroke-linejoin="round" stroke="#CCCCCC" stroke-width="0.512"/>
<g id="SVGRepo_iconCarrier">
<path d="M51.48,15.46A4.52,4.52,0,0,1,56,20V51a4.52,4.52,0,0,1-4.52,4.52h-47A4.52,4.52,0,0,1,0,51H0V13A4.52,4.52,0,0,1,4.52,8.52H16c3.82,0,4.23,1.14,6.74,4.45,2.07,2.74,7.11,2.49,10.39,2.49Z" fill="#c79200"/>
<path d="M51.48,18.12H9.24a4.52,4.52,0,0,0-4.52,4.52v2.84L9.19,19H51.54L56,25.49V22.64A4.52,4.52,0,0,0,51.48,18.12Z" fill="#fbde74"/>
<path d="M4.57,55.48H51.48A4.52,4.52,0,0,0,56,51V23.48A4.52,4.52,0,0,0,51.48,19H9.25a4.52,4.52,0,0,0-4.52,4.52V51a4.65,4.65,0,0,1-.06.72,2.33,2.33,0,0,1-4.6,0A4.5,4.5,0,0,0,4.57,55.48Z" fill="#ffce47"/>
</g>
</svg>